<svg width="16.312500" height="16.875000" viewBox="0 0 16.3125 16.875" fill="none" xmlns="http://www.w3.org/2000/svg" xmlns:xlink="http://www.w3.org/1999/xlink">
	<desc>
			Created with Pixso.
	</desc>
	<defs/>
	<path id="Vector" d="M12.37 0C12.5 3.05e-5 12.62 0.04 12.72 0.12C12.82 0.2 12.89 0.31 12.92 0.43L13.23 1.8C13.3 2.11 13.46 2.4 13.68 2.62C13.91 2.85 14.19 3 14.5 3.07L15.87 3.38C15.99 3.41 16.1 3.48 16.18 3.58C16.26 3.68 16.31 3.81 16.31 3.93C16.31 4.06 16.26 4.18 16.18 4.28C16.1 4.38 15.99 4.45 15.87 4.48L14.5 4.79C14.19 4.86 13.91 5.02 13.68 5.24C13.46 5.47 13.3 5.75 13.23 6.06L12.92 7.43C12.89 7.56 12.82 7.67 12.72 7.75C12.62 7.83 12.5 7.87 12.37 7.87C12.24 7.87 12.12 7.83 12.02 7.75C11.92 7.67 11.85 7.56 11.82 7.43L11.51 6.06C11.44 5.75 11.28 5.47 11.06 5.24C10.83 5.02 10.55 4.86 10.24 4.79L8.87 4.48C8.75 4.45 8.64 4.38 8.56 4.28C8.48 4.18 8.43 4.06 8.43 3.93C8.43 3.81 8.48 3.68 8.56 3.58C8.64 3.48 8.75 3.41 8.87 3.38L10.24 3.07C10.55 3 10.83 2.85 11.06 2.62C11.28 2.4 11.44 2.11 11.51 1.8L11.82 0.43C11.85 0.31 11.92 0.2 12.02 0.12C12.12 0.04 12.24 3.05e-5 12.37 0ZM12.37 2.71C12.1 3.23 11.67 3.66 11.14 3.93C11.67 4.2 12.1 4.63 12.37 5.16C12.64 4.63 13.07 4.2 13.6 3.93C13.07 3.66 12.64 3.23 12.37 2.71ZM9.05 5.9C8.64 5.9 8.25 6.06 7.95 6.35C7.66 6.64 7.5 7.04 7.5 7.45C7.5 7.86 7.66 8.25 7.95 8.54C8.25 8.83 8.64 9 9.05 9C9.46 9 9.85 8.83 10.14 8.54C10.43 8.25 10.59 7.86 10.59 7.45C10.59 7.04 10.43 6.64 10.14 6.35C9.85 6.06 9.46 5.9 9.05 5.9ZM8.59 7.45C8.59 7.21 8.79 7 9.05 7C9.31 7 9.5 7.21 9.5 7.45C9.5 7.69 9.31 7.89 9.05 7.89C8.79 7.89 8.59 7.69 8.59 7.45Z" fill="#919396" fill-opacity="1.000000" fill-rule="evenodd"/>
	<path id="Vector" d="M2.25 3.37L7.71 3.37C7.63 3.54 7.59 3.73 7.59 3.93C7.59 4.13 7.63 4.32 7.71 4.5L2.25 4.5C1.95 4.5 1.66 4.61 1.45 4.82C1.24 5.04 1.12 5.32 1.12 5.62L1.12 10.41C3.6 9.78 6.09 10.45 7.9 11.99C9.1 11.23 10.51 11.04 11.81 11.36L11.81 8.6C11.98 8.67 12.17 8.71 12.37 8.71C12.57 8.71 12.76 8.67 12.93 8.6L12.93 14.62C12.93 15.22 12.7 15.79 12.27 16.21C11.85 16.63 11.28 16.87 10.68 16.87L2.25 16.87C1.65 16.87 1.08 16.63 0.65 16.21C0.23 15.79 0 15.22 0 14.62L0 5.62C0 5.02 0.23 4.45 0.65 4.03C1.08 3.61 1.65 3.37 2.25 3.37ZM1.12 11.55L1.12 14.62C1.12 14.92 1.24 15.2 1.45 15.42C1.66 15.63 1.95 15.75 2.25 15.75L9.12 15.75C8.03 12.48 4.61 10.62 1.27 11.53C1.22 11.54 1.17 11.55 1.12 11.55ZM10.3 15.75L10.68 15.75C10.98 15.75 11.27 15.63 11.48 15.42C11.69 15.2 11.81 14.92 11.81 14.62L11.81 12.53C10.8 12.2 9.68 12.28 8.73 12.81C9.46 13.66 10 14.66 10.3 15.75Z" fill="#919396" fill-opacity="1.000000" fill-rule="evenodd"/>
</svg>
