<svg width="17.916687" height="15.416687" viewBox="0 0 17.9167 15.4167" fill="none" xmlns="http://www.w3.org/2000/svg" xmlns:xlink="http://www.w3.org/1999/xlink">
	<desc>
			Created with Pixso.
	</desc>
	<defs/>
	<path id="Vector" d="M15.41 4.79C15.41 4.18 15.17 3.6 14.74 3.17C14.31 2.74 13.73 2.5 13.12 2.5L2.29 2.5C1.68 2.5 1.1 2.74 0.67 3.17C0.24 3.6 0 4.18 0 4.79L0 13.12C0 13.73 0.24 14.31 0.67 14.74C1.1 15.17 1.68 15.41 2.29 15.41L13.12 15.41C13.73 15.41 14.31 15.17 14.74 14.74C15.17 14.31 15.41 13.73 15.41 13.12L15.41 4.79ZM14.16 4.79L14.16 13.12C14.16 13.7 13.7 14.16 13.12 14.16L2.29 14.16C1.71 14.16 1.25 13.7 1.25 13.12L1.25 4.79C1.25 4.21 1.71 3.75 2.29 3.75L13.12 3.75C13.7 3.75 14.16 4.21 14.16 4.79Z" fill="#919396" fill-opacity="1.000000" fill-rule="evenodd"/>
	<path id="Vector" d="M3.09 3.74L3.12 3.75L3.15 3.74C3.27 3.72 3.75 3.62 3.75 3.11L3.75 2.29C3.75 2.01 3.86 1.75 4.05 1.55C4.25 1.36 4.51 1.25 4.79 1.25L15.62 1.25C16.2 1.25 16.66 1.71 16.66 2.29L16.66 10.62C16.66 10.9 16.55 11.16 16.36 11.36C16.16 11.55 15.9 11.66 15.62 11.66L14.79 11.66C14.62 11.66 14.46 11.73 14.34 11.84C14.23 11.96 14.16 12.12 14.16 12.29C14.16 12.45 14.23 12.61 14.34 12.73C14.46 12.85 14.62 12.91 14.79 12.91L15.62 12.91C16.23 12.91 16.81 12.67 17.24 12.24C17.67 11.81 17.91 11.23 17.91 10.62L17.91 2.29C17.91 1.68 17.67 1.1 17.24 0.67C16.81 0.24 16.23 0 15.62 0L4.79 0C4.18 0 3.6 0.24 3.17 0.67C2.74 1.1 2.5 1.68 2.5 2.29L2.5 3.12C2.5 3.16 2.5 3.21 2.51 3.25C2.54 3.38 2.61 3.51 2.71 3.59C2.82 3.68 2.95 3.74 3.09 3.74Z" fill="#919396" fill-opacity="1.000000" fill-rule="evenodd"/>
	<path id="Vector" d="M1.63 14.8L5.13 11.18C5.16 11.15 5.21 11.12 5.26 11.12C5.31 11.12 5.37 11.13 5.41 11.17L6.28 11.87C6.57 12.1 6.94 12.21 7.31 12.18C7.68 12.15 8.03 11.98 8.28 11.71L11.06 8.64C11.08 8.61 11.1 8.6 11.13 8.58C11.16 8.57 11.19 8.57 11.22 8.57C11.25 8.57 11.28 8.58 11.3 8.59C11.33 8.6 11.35 8.62 11.37 8.65L14.3 12.26C14.35 12.33 14.42 12.38 14.49 12.42C14.56 12.46 14.64 12.48 14.72 12.49C14.8 12.5 14.89 12.49 14.96 12.47C15.04 12.45 15.12 12.41 15.18 12.36C15.24 12.3 15.3 12.24 15.34 12.17C15.38 12.1 15.4 12.02 15.41 11.94C15.42 11.85 15.41 11.77 15.39 11.69C15.36 11.61 15.32 11.54 15.27 11.48L12.34 7.86C12.21 7.69 12.04 7.56 11.86 7.47C11.67 7.38 11.46 7.32 11.25 7.32C11.04 7.31 10.83 7.35 10.64 7.44C10.44 7.52 10.27 7.64 10.13 7.8L7.35 10.87C7.31 10.91 7.26 10.93 7.21 10.94C7.16 10.94 7.11 10.93 7.07 10.89L6.19 10.19C5.9 9.96 5.54 9.85 5.18 9.87C4.82 9.9 4.48 10.05 4.23 10.32L0.73 13.94C0.63 14.06 0.57 14.21 0.58 14.38C0.58 14.54 0.65 14.69 0.77 14.8C0.88 14.91 1.04 14.98 1.2 14.98C1.36 14.98 1.52 14.92 1.63 14.8ZM4.79 4.58C4.6 4.58 4.41 4.62 4.23 4.69C4.05 4.76 3.89 4.87 3.76 5.01C3.48 5.28 3.33 5.65 3.33 6.04C3.33 6.42 3.48 6.8 3.76 7.07C4.03 7.34 4.4 7.5 4.79 7.5C5.17 7.5 5.55 7.34 5.82 7.07C6.09 6.79 6.25 6.42 6.25 6.04C6.25 5.65 6.09 5.28 5.82 5.01C5.54 4.73 5.17 4.58 4.79 4.58ZM4.79 5.83C4.84 5.83 4.89 5.85 4.93 5.89C4.97 5.93 5 5.98 5 6.04C5 6.09 4.97 6.14 4.93 6.18C4.89 6.22 4.84 6.25 4.79 6.25C4.73 6.25 4.68 6.22 4.64 6.18C4.6 6.14 4.58 6.09 4.58 6.04C4.58 5.98 4.6 5.93 4.64 5.89C4.68 5.85 4.73 5.83 4.79 5.83Z" fill="#919396" fill-opacity="1.000000" fill-rule="evenodd"/>
</svg>
