<svg width="26.000000" height="18.200012" viewBox="0 0 26 18.2" fill="none" xmlns="http://www.w3.org/2000/svg" xmlns:xlink="http://www.w3.org/1999/xlink">
	<desc>
			Created with Pixso.
	</desc>
	<defs/>
	<path id="Vector" d="M19.5 1.29C19.5 0.58 18.91 0 18.2 0L1.29 0C0.58 0 0 0.58 0 1.29C0 2.01 0.58 2.59 1.29 2.59L18.2 2.59C18.91 2.59 19.5 2.01 19.5 1.29ZM1.29 7.79L24.7 7.79C25.41 7.79 26 8.38 26 9.09C26 9.81 25.41 10.4 24.7 10.4L1.29 10.4C0.58 10.4 0 9.81 0 9.09C0 8.38 0.58 7.79 1.29 7.79ZM1.29 15.6L13 15.6C13.71 15.6 14.3 16.18 14.3 16.9C14.3 17.61 13.71 18.2 13 18.2L1.29 18.2C0.58 18.2 0 17.61 0 16.9C0 16.18 0.58 15.6 1.29 15.6Z" fill="#3B596A" fill-opacity="1.000000" fill-rule="nonzero"/>
</svg>
