<svg width="20.000000" height="20.000000" viewBox="0 0 20 20" fill="none" xmlns="http://www.w3.org/2000/svg" xmlns:xlink="http://www.w3.org/1999/xlink">
	<desc>
			Created with Pixso.
	</desc>
	<defs/>
	<path id="Vector" d="M7.5 8.95C6.23 8.95 5.2 7.93 5.2 6.66C5.2 5.39 6.23 4.37 7.5 4.37C8.76 4.37 9.79 5.39 9.79 6.66C9.79 7.93 8.76 8.95 7.5 8.95ZM7.5 5.62C6.92 5.62 6.45 6.09 6.45 6.66C6.45 7.24 6.92 7.7 7.5 7.7C8.07 7.7 8.54 7.24 8.54 6.66C8.54 6.09 8.07 5.62 7.5 5.62Z" fill="#919396" fill-opacity="1.000000" fill-rule="nonzero"/>
	<path id="Vector" d="M12.5 18.95L7.5 18.95C2.97 18.95 1.04 17.02 1.04 12.5L1.04 7.5C1.04 2.97 2.97 1.04 7.5 1.04L10 1.04C10.34 1.04 10.62 1.32 10.62 1.66C10.62 2 10.34 2.29 10 2.29L7.5 2.29C3.65 2.29 2.29 3.65 2.29 7.5L2.29 12.5C2.29 16.34 3.65 17.7 7.5 17.7L12.5 17.7C16.34 17.7 17.7 16.34 17.7 12.5L17.7 9.16C17.7 8.82 17.99 8.54 18.33 8.54C18.67 8.54 18.95 8.82 18.95 9.16L18.95 12.5C18.95 17.02 17.02 18.95 12.5 18.95Z" fill="#919396" fill-opacity="1.000000" fill-rule="nonzero"/>
	<path id="Vector" d="M15.78 6.96C15.05 6.96 13.35 6.07 12.83 4.44C12.47 3.32 12.89 1.84 14.19 1.43C14.74 1.25 15.31 1.33 15.77 1.61C16.22 1.33 16.81 1.24 17.37 1.43C18.67 1.84 19.09 3.32 18.73 4.44C18.2 6.1 16.42 6.96 15.78 6.96ZM14.02 4.06C14.38 5.17 15.58 5.69 15.8 5.71C16.04 5.69 17.21 5.1 17.54 4.06C17.71 3.5 17.54 2.79 16.99 2.61C16.75 2.54 16.45 2.58 16.3 2.79C16.19 2.97 16 3.08 15.8 3.08C15.6 3.08 15.4 2.99 15.28 2.82C15.1 2.58 14.8 2.54 14.58 2.61C14.02 2.79 13.85 3.5 14.02 4.06Z" fill="#919396" fill-opacity="1.000000" fill-rule="nonzero"/>
	<path id="Vector" d="M2.22 16.41C2.02 16.41 1.82 16.31 1.7 16.14C1.51 15.85 1.59 15.46 1.88 15.27L5.99 12.51C6.89 11.9 8.13 11.98 8.94 12.67L9.22 12.91C9.64 13.27 10.35 13.27 10.75 12.91L14.22 9.94C15.1 9.18 16.5 9.18 17.39 9.94L18.75 11.1C19 11.33 19.04 11.72 18.81 11.99C18.59 12.25 18.2 12.28 17.93 12.05L16.57 10.89C16.15 10.53 15.45 10.53 15.03 10.89L11.56 13.86C10.68 14.62 9.29 14.62 8.39 13.86L8.12 13.62C7.74 13.3 7.1 13.26 6.68 13.55L2.57 16.31C2.46 16.38 2.34 16.41 2.22 16.41Z" fill="#919396" fill-opacity="1.000000" fill-rule="nonzero"/>
	<g opacity="0.000000"/>
</svg>
