<svg width="20.000000" height="20.000000" viewBox="0 0 20 20" fill="none" xmlns="http://www.w3.org/2000/svg" xmlns:xlink="http://www.w3.org/1999/xlink">
	<desc>
			Created with Pixso.
	</desc>
	<defs/>
	<path id="Vector" d="M14.82 18.95L5.17 18.95C2.89 18.95 1.04 17.1 1.04 14.81L1.04 8.64C1.04 7.5 1.74 6.08 2.64 5.38L7.13 1.88C8.48 0.83 10.64 0.78 12.04 1.76L17.19 5.37C18.18 6.06 18.95 7.54 18.95 8.75L18.95 14.82C18.95 17.1 17.1 18.95 14.82 18.95ZM7.89 2.86L3.4 6.36C2.81 6.83 2.29 7.89 2.29 8.64L2.29 14.81C2.29 16.4 3.58 17.7 5.17 17.7L14.82 17.7C16.41 17.7 17.7 16.41 17.7 14.82L17.7 8.75C17.7 7.95 17.13 6.85 16.47 6.39L11.32 2.79C10.37 2.12 8.8 2.15 7.89 2.86Z" fill="#919396" fill-opacity="1.000000" fill-rule="nonzero"/>
	<path id="Vector" d="M10 15.62C9.65 15.62 9.37 15.34 9.37 15L9.37 12.5C9.37 12.15 9.65 11.87 10 11.87C10.34 11.87 10.62 12.15 10.62 12.5L10.62 15C10.62 15.34 10.34 15.62 10 15.62Z" fill="#919396" fill-opacity="1.000000" fill-rule="nonzero"/>
	<g opacity="0.000000"/>
</svg>
