<svg width="20.000000" height="20.000000" viewBox="0 0 20 20" fill="none" xmlns="http://www.w3.org/2000/svg" xmlns:xlink="http://www.w3.org/1999/xlink">
	<desc>
			Created with Pixso.
	</desc>
	<defs/>
	<path id="Vector" d="M7.63 9.68C7.6 9.68 7.59 9.68 7.56 9.68C7.52 9.67 7.46 9.67 7.41 9.68C4.99 9.6 3.17 7.7 3.17 5.36C3.17 2.98 5.11 1.04 7.49 1.04C9.88 1.04 11.82 2.98 11.82 5.36C11.81 7.7 9.98 9.6 7.65 9.68C7.64 9.68 7.64 9.68 7.63 9.68ZM7.49 2.29C5.8 2.29 4.42 3.67 4.42 5.36C4.42 7.03 5.72 8.37 7.38 8.43C7.43 8.42 7.54 8.42 7.64 8.43C9.28 8.35 10.56 7.01 10.57 5.36C10.57 3.67 9.19 2.29 7.49 2.29Z" fill="#919396" fill-opacity="1.000000" fill-rule="nonzero"/>
	<path id="Vector" d="M13.78 9.79C13.75 9.79 13.73 9.79 13.7 9.78C13.36 9.81 13.01 9.57 12.98 9.23C12.94 8.89 13.15 8.58 13.49 8.54C13.59 8.53 13.7 8.53 13.79 8.53C15.01 8.46 15.96 7.46 15.96 6.24C15.96 4.97 14.94 3.94 13.67 3.94C13.33 3.95 13.04 3.67 13.04 3.33C13.04 2.99 13.33 2.7 13.67 2.7C15.62 2.7 17.21 4.29 17.21 6.24C17.21 8.16 15.71 9.71 13.8 9.79C13.79 9.79 13.79 9.79 13.78 9.79Z" fill="#919396" fill-opacity="1.000000" fill-rule="nonzero"/>
	<path id="Vector" d="M7.64 18.79C6 18.79 4.36 18.37 3.12 17.54C1.96 16.77 1.33 15.72 1.33 14.58C1.33 13.44 1.96 12.38 3.12 11.6C5.62 9.94 9.67 9.94 12.15 11.6C13.3 12.37 13.94 13.42 13.94 14.56C13.94 15.7 13.31 16.76 12.15 17.54C10.9 18.37 9.27 18.79 7.64 18.79ZM3.81 12.65C3.01 13.19 2.58 13.87 2.58 14.59C2.58 15.3 3.02 15.98 3.81 16.5C5.89 17.9 9.39 17.9 11.46 16.5C12.26 15.97 12.69 15.29 12.69 14.57C12.69 13.86 12.25 13.18 11.46 12.65C9.39 11.27 5.89 11.27 3.81 12.65Z" fill="#919396" fill-opacity="1.000000" fill-rule="nonzero"/>
	<g opacity="0.000000"/>
	<path id="Vector" d="M15.28 17.29C14.99 17.29 14.73 17.09 14.67 16.79C14.6 16.45 14.82 16.12 15.15 16.04C15.68 15.94 16.16 15.73 16.54 15.44C17.01 15.08 17.27 14.63 17.27 14.15C17.27 13.68 17.01 13.23 16.54 12.88C16.18 12.6 15.72 12.4 15.18 12.27C14.84 12.2 14.63 11.86 14.7 11.52C14.78 11.19 15.11 10.97 15.45 11.05C16.17 11.2 16.79 11.49 17.3 11.88C18.08 12.46 18.52 13.29 18.52 14.15C18.52 15.02 18.07 15.85 17.29 16.44C16.78 16.84 16.13 17.13 15.41 17.27C15.36 17.29 15.32 17.29 15.28 17.29Z" fill="#919396" fill-opacity="1.000000" fill-rule="nonzero"/>
</svg>
