<svg width="20.000000" height="20.000000" viewBox="0 0 20 20" fill="none" xmlns="http://www.w3.org/2000/svg" xmlns:xlink="http://www.w3.org/1999/xlink">
	<desc>
			Created with Pixso.
	</desc>
	<defs/>
	<rect id="vuesax/outline/ranking" rx="-0.500000" width="19.000000" height="19.000000" transform="translate(0.500000 0.500000)" fill="#FFFFFF" fill-opacity="0"/>
	<path id="Vector" d="M13.53 18.89C13.17 18.89 12.72 18.78 12.16 18.45L10.3 17.34C10.15 17.25 9.84 17.25 9.7 17.34L7.83 18.45C6.65 19.15 5.93 18.85 5.61 18.62C5.3 18.39 4.8 17.79 5.1 16.45L5.55 14.53C5.58 14.38 5.5 14.1 5.39 13.98L3.84 12.43C3 11.6 3.07 10.87 3.19 10.5C3.3 10.14 3.67 9.51 4.83 9.31L6.82 8.98C6.96 8.95 7.19 8.79 7.25 8.66L8.35 6.46C8.89 5.39 9.6 5.22 9.99 5.22C10.37 5.22 11.09 5.38 11.63 6.46L12.73 8.66C12.8 8.79 13.02 8.95 13.15 8.98L15.15 9.31C16.3 9.5 16.67 10.14 16.79 10.5C16.9 10.87 16.97 11.6 16.14 12.43L14.59 13.98C14.48 14.09 14.4 14.38 14.43 14.53L14.87 16.45C15.18 17.79 14.69 18.38 14.36 18.61C14.21 18.75 13.93 18.89 13.53 18.89ZM10 16.03C10.33 16.03 10.66 16.1 10.93 16.26L12.8 17.37C13.29 17.66 13.58 17.66 13.64 17.61C13.7 17.56 13.79 17.29 13.66 16.74L13.22 14.82C13.09 14.25 13.3 13.52 13.71 13.11L15.26 11.56C15.57 11.25 15.64 11.01 15.6 10.9C15.57 10.8 15.38 10.64 14.95 10.57L12.95 10.24C12.42 10.14 11.85 9.73 11.61 9.25L10.51 7.05C10.32 6.67 10.11 6.5 9.99 6.5C9.86 6.5 9.65 6.66 9.46 7.05L8.36 9.25C8.12 9.73 7.55 10.14 7.02 10.24L5.03 10.57C4.6 10.65 4.4 10.8 4.37 10.9C4.34 11.01 4.4 11.25 4.71 11.56L6.26 13.11C6.67 13.52 6.89 14.26 6.75 14.82L6.31 16.75C6.19 17.3 6.27 17.58 6.34 17.62C6.4 17.67 6.7 17.67 7.18 17.38L9.05 16.27C9.33 16.11 9.66 16.03 10 16.03Z" fill="#919396" fill-opacity="1.000000" fill-rule="nonzero"/>
	<path id="Vector" d="M5 8.12C4.65 8.12 4.37 7.84 4.37 7.5L4.37 1.66C4.37 1.32 4.65 1.04 5 1.04C5.34 1.04 5.62 1.32 5.62 1.66L5.62 7.5C5.62 7.84 5.34 8.12 5 8.12Z" fill="#919396" fill-opacity="1.000000" fill-rule="nonzero"/>
	<path id="Vector" d="M15 8.12C14.65 8.12 14.37 7.84 14.37 7.5L14.37 1.66C14.37 1.32 14.65 1.04 15 1.04C15.34 1.04 15.62 1.32 15.62 1.66L15.62 7.5C15.62 7.84 15.34 8.12 15 8.12Z" fill="#919396" fill-opacity="1.000000" fill-rule="nonzero"/>
	<path id="Vector" d="M10 3.95C9.65 3.95 9.37 3.67 9.37 3.33L9.37 1.66C9.37 1.32 9.65 1.04 10 1.04C10.34 1.04 10.62 1.32 10.62 1.66L10.62 3.33C10.62 3.67 10.34 3.95 10 3.95Z" fill="#919396" fill-opacity="1.000000" fill-rule="nonzero"/>
	<g opacity="0.000000"/>
</svg>
