<svg width="20.000000" height="20.000000" viewBox="0 0 20 20" fill="none" xmlns="http://www.w3.org/2000/svg" xmlns:xlink="http://www.w3.org/1999/xlink">
	<desc>
			Created with Pixso.
	</desc>
	<defs/>
	<path id="Vector" d="M1.66 7.5L1.66 5.41C1.66 3.34 3.34 1.66 5.41 1.66L7.49 1.66" stroke="#919396" stroke-opacity="1.000000" stroke-width="1.200000" stroke-linejoin="round" stroke-linecap="round"/>
	<path id="Vector" d="M12.5 1.66L14.58 1.66C16.65 1.66 18.33 3.34 18.33 5.41L18.33 7.5" stroke="#919396" stroke-opacity="1.000000" stroke-width="1.200000" stroke-linejoin="round" stroke-linecap="round"/>
	<path id="Vector" d="M18.33 13.33L18.33 14.58C18.33 16.65 16.65 18.33 14.58 18.33L13.33 18.33" stroke="#919396" stroke-opacity="1.000000" stroke-width="1.200000" stroke-linejoin="round" stroke-linecap="round"/>
	<path id="Vector" d="M7.49 18.33L5.41 18.33C3.34 18.33 1.66 16.65 1.66 14.58L1.66 12.5" stroke="#919396" stroke-opacity="1.000000" stroke-width="1.200000" stroke-linejoin="round" stroke-linecap="round"/>
	<path id="Face ID Symbol" d="M6.68 9.12C6.48 9.12 6.31 9.06 6.18 8.93C6.06 8.8 6 8.62 6 8.39L6 6.92C6 6.71 6.06 6.53 6.18 6.4C6.31 6.26 6.48 6.19 6.68 6.19C6.88 6.19 7.04 6.26 7.18 6.4C7.31 6.53 7.37 6.71 7.37 6.92L7.37 8.39C7.37 8.62 7.31 8.8 7.18 8.93C7.04 9.06 6.88 9.12 6.68 9.12ZM9.68 11.67C9.47 11.67 9.3 11.62 9.18 11.52C9.07 11.41 9.01 11.26 9.01 11.08C9.01 10.92 9.06 10.79 9.15 10.69C9.26 10.58 9.39 10.53 9.54 10.53L9.89 10.53C9.97 10.53 10.03 10.5 10.09 10.45C10.15 10.4 10.18 10.32 10.18 10.22L10.18 6.74C10.18 6.56 10.23 6.43 10.32 6.34C10.42 6.23 10.55 6.18 10.71 6.18C10.87 6.18 11 6.23 11.1 6.34C11.2 6.43 11.25 6.56 11.25 6.74L11.25 10.12C11.25 10.63 11.12 11.02 10.87 11.28C10.62 11.54 10.26 11.67 9.78 11.67C9.76 11.67 9.74 11.67 9.72 11.67C9.71 11.67 9.7 11.67 9.68 11.67ZM14.31 9.12C14.1 9.12 13.94 9.06 13.81 8.93C13.69 8.8 13.63 8.62 13.63 8.39L13.63 6.92C13.63 6.71 13.69 6.53 13.81 6.4C13.94 6.26 14.1 6.19 14.31 6.19C14.51 6.19 14.67 6.26 14.8 6.4C14.93 6.53 15 6.71 15 6.92L15 8.39C15 8.62 14.93 8.8 14.8 8.93C14.67 9.06 14.51 9.12 14.31 9.12ZM10.45 15.18C9.85 15.18 9.25 15.06 8.67 14.81C8.08 14.56 7.58 14.19 7.18 13.71C7.12 13.66 7.08 13.6 7.04 13.53C7.01 13.46 7 13.38 7 13.3C7 13.13 7.05 13 7.15 12.9C7.26 12.8 7.39 12.75 7.54 12.75C7.63 12.75 7.71 12.77 7.78 12.81C7.85 12.86 7.92 12.91 7.99 12.99C8.3 13.31 8.67 13.57 9.11 13.77C9.55 13.97 10 14.06 10.45 14.06C10.92 14.06 11.38 13.97 11.82 13.77C12.26 13.57 12.63 13.3 12.92 12.99C13.07 12.83 13.22 12.75 13.37 12.75C13.51 12.75 13.64 12.8 13.74 12.9C13.85 13 13.9 13.13 13.9 13.3C13.9 13.4 13.88 13.48 13.86 13.55C13.83 13.62 13.79 13.67 13.74 13.73C13.3 14.18 12.79 14.54 12.21 14.8C11.64 15.06 11.05 15.18 10.45 15.18Z" fill="#919396" fill-opacity="1.000000" fill-rule="nonzero"/>
	<g opacity="0.000000"/>
</svg>
