<svg width="24.000000" height="24.000000" viewBox="0 0 24 24" fill="none" xmlns="http://www.w3.org/2000/svg" xmlns:xlink="http://www.w3.org/1999/xlink">
	<desc>
			Created with Pixso.
	</desc>
	<defs>
		<linearGradient x1="8.000000" y1="11.000000" x2="8.000000" y2="17.000000" id="paint_linear_153_309_0" gradientUnits="userSpaceOnUse">
			<stop stop-color="#3EB9FF"/>
			<stop offset="1.000000" stop-color="#2098DB"/>
		</linearGradient>
		<linearGradient x1="10.000000" y1="11.000000" x2="10.000000" y2="13.000000" id="paint_linear_153_310_0" gradientUnits="userSpaceOnUse">
			<stop stop-color="#3EB9FF"/>
			<stop offset="1.000000" stop-color="#2098DB"/>
		</linearGradient>
		<linearGradient x1="12.000000" y1="2.000000" x2="12.000000" y2="22.000000" id="paint_linear_153_311_0" gradientUnits="userSpaceOnUse">
			<stop stop-color="#3EB9FF"/>
			<stop offset="1.000000" stop-color="#2098DB"/>
		</linearGradient>
		<linearGradient x1="18.000000" y1="2.000000" x2="18.000000" y2="10.000000" id="paint_linear_153_312_0" gradientUnits="userSpaceOnUse">
			<stop stop-color="#3EB9FF"/>
			<stop offset="1.000000" stop-color="#2098DB"/>
		</linearGradient>
	</defs>
	<path id="Vector" d="M9 17L9 11L7 13" stroke="url(#paint_linear_153_309_0)" stroke-opacity="1.000000" stroke-width="1.500000" stroke-linejoin="round" stroke-linecap="round"/>
	<path id="Vector" d="M9 11L11 13" stroke="url(#paint_linear_153_310_0)" stroke-opacity="1.000000" stroke-width="1.500000" stroke-linejoin="round" stroke-linecap="round"/>
	<path id="Vector" d="M22 10L22 15C22 20 20 22 15 22L9 22C4 22 2 20 2 15L2 9C2 4 4 2 9 2L14 2" stroke="url(#paint_linear_153_311_0)" stroke-opacity="1.000000" stroke-width="1.500000" stroke-linejoin="round" stroke-linecap="round"/>
	<path id="Vector" d="M18 10C15 10 14 9 14 6L14 2L22 10L18 10Z" stroke="url(#paint_linear_153_312_0)" stroke-opacity="1.000000" stroke-width="1.500000" stroke-linejoin="round"/>
	<g opacity="0.000000"/>
</svg>
