<svg width="68.782715" height="59.586960" viewBox="0 0 68.7827 59.587" fill="none" xmlns="http://www.w3.org/2000/svg" xmlns:xlink="http://www.w3.org/1999/xlink">
	<desc>
			Created with Pixso.
	</desc>
	<defs>
		<linearGradient x1="41.189713" y1="5.851624" x2="41.189713" y2="14.632865" id="paint_linear_274_516_0" gradientUnits="userSpaceOnUse">
			<stop stop-color="#3EB9FF"/>
			<stop offset="1.000000" stop-color="#2098DB"/>
		</linearGradient>
		<linearGradient x1="34.391453" y1="0.000000" x2="34.391453" y2="42.438984" id="paint_linear_274_517_0" gradientUnits="userSpaceOnUse">
			<stop stop-color="#3EB9FF"/>
			<stop offset="1.000000" stop-color="#2098DB"/>
		</linearGradient>
		<linearGradient x1="34.293480" y1="23.000000" x2="34.293480" y2="59.586956" id="paint_linear_274_518_0" gradientUnits="userSpaceOnUse">
			<stop stop-color="#3EB9FF"/>
			<stop offset="1.000000" stop-color="#2098DB"/>
		</linearGradient>
		<linearGradient x1="34.627998" y1="34.193451" x2="34.627998" y2="49.193451" id="paint_linear_274_520_0" gradientUnits="userSpaceOnUse">
			<stop stop-color="#3EB9FF"/>
			<stop offset="1.000000" stop-color="#2098DB"/>
		</linearGradient>
		<linearGradient x1="34.628082" y1="34.194702" x2="34.628082" y2="39.551945" id="paint_linear_274_521_0" gradientUnits="userSpaceOnUse">
			<stop stop-color="#3EB9FF"/>
			<stop offset="1.000000" stop-color="#2098DB"/>
		</linearGradient>
	</defs>
	<path id="Vector" d="M36.07 14.6C35.68 14.48 35.46 14.07 35.57 13.69C36.92 9.17 41.11 5.85 46.09 5.85C46.5 5.85 46.83 6.17 46.83 6.58C46.83 6.98 46.5 7.31 46.09 7.31C41.92 7.31 38.17 10.1 36.98 14.1C36.86 14.49 36.46 14.71 36.07 14.6L36.07 14.6Z" fill="url(#paint_linear_274_516_0)" fill-opacity="1.000000" fill-rule="evenodd"/>
	<path id="Vector" d="M56.34 42.43L51.95 42.43C51.54 42.43 51.22 42.11 51.22 41.7C51.22 41.3 51.54 40.97 51.95 40.97L56.34 40.97C62.39 40.97 67.31 36.05 67.31 29.99C67.31 23.94 62.39 19.02 56.34 19.02L56.23 19.02C56.02 19.02 55.82 18.93 55.68 18.77C55.54 18.61 55.48 18.39 55.51 18.18C55.57 17.73 55.61 17.27 55.61 16.82C55.61 11.58 51.34 7.31 46.09 7.31C44.05 7.31 42.11 7.95 40.47 9.15C40.11 9.42 39.59 9.3 39.39 8.91C34.74 0.05 22.6 -1.13 16.3 6.57C13.65 9.81 12.61 14.03 13.44 18.14C13.54 18.6 13.19 19.02 12.73 19.02L12.43 19.02C6.38 19.02 1.46 23.94 1.46 29.99C1.46 36.05 6.38 40.97 12.43 40.97L16.82 40.97C17.23 40.97 17.56 41.3 17.56 41.7C17.56 42.11 17.23 42.43 16.82 42.43L12.43 42.43C5.58 42.43 0 36.85 0 29.99C0 23.33 5.27 17.87 11.86 17.57C11.24 13.3 12.43 9 15.17 5.64C21.91 -2.6 34.82 -1.68 40.28 7.51C42.02 6.42 44.02 5.85 46.09 5.85C52.45 5.85 57.48 11.26 57.04 17.58C63.58 17.94 68.78 23.37 68.78 29.99C68.78 36.85 63.2 42.43 56.34 42.43L56.34 42.43Z" fill="url(#paint_linear_274_517_0)" fill-opacity="1.000000" fill-rule="evenodd"/>
	<path id="Vector" d="M34.29 59.58C24.2 59.58 16 51.38 16 41.29C16 31.2 24.2 23 34.29 23C44.38 23 52.58 31.2 52.58 41.29C52.58 51.38 44.38 59.58 34.29 59.58ZM34.29 24.46C25.01 24.46 17.46 32.01 17.46 41.29C17.46 50.57 25.01 58.12 34.29 58.12C43.57 58.12 51.12 50.57 51.12 41.29C51.12 32.01 43.57 24.46 34.29 24.46Z" fill="url(#paint_linear_274_518_0)" fill-opacity="1.000000" fill-rule="evenodd"/>
	<path id="Vector" d="M34.62 49.19C34.33 49.19 34.09 48.95 34.09 48.65L34.09 34.72C34.09 34.43 34.33 34.19 34.62 34.19C34.92 34.19 35.16 34.43 35.16 34.72L35.16 48.65C35.16 48.95 34.92 49.19 34.62 49.19Z" fill="url(#paint_linear_274_520_0)" fill-opacity="1.000000" fill-rule="evenodd"/>
	<path id="Vector" d="M38.91 39.55C38.77 39.55 38.63 39.49 38.53 39.39L34.62 35.48L30.72 39.39C30.51 39.6 30.17 39.6 29.96 39.39C29.75 39.18 29.75 38.84 29.96 38.63L34.24 34.35C34.45 34.14 34.79 34.14 35 34.35L39.29 38.63C39.5 38.84 39.5 39.18 39.29 39.39C39.18 39.49 39.05 39.55 38.91 39.55L38.91 39.55Z" fill="url(#paint_linear_274_521_0)" fill-opacity="1.000000" fill-rule="evenodd"/>
</svg>
